<svg width="100%" height="108" viewBox="0 0 462 108" fill="none" xmlns="http://www.w3.org/2000/svg">
<g filter="url(#filter0_dd_3695_28975)">
<g clip-path="url(#clip0_3695_28975)">
<mask id="mask0_3695_28975" style="mask-type:alpha" maskUnits="userSpaceOnUse" x="5" y="3" width="452" height="98">
<rect x="5" y="3" width="452" height="98" fill="#FDFAFF"/>
</mask>
<g mask="url(#mask0_3695_28975)">
<path fill-rule="evenodd" clip-rule="evenodd" d="M119 3C114.582 3 110.707 7.79656 106.412 8.83283C105.959 8.94211 105.486 9 105 9C104.514 9 104.041 8.94211 103.588 8.83283C99.2926 7.79656 95.4183 3 91 3H13C8.58172 3 5 6.58172 5 11V93C5 97.4183 8.58172 101 13 101H91C95.4183 101 99.2926 96.2034 103.588 95.1672C104.041 95.0579 104.514 95 105 95C105.486 95 105.959 95.0579 106.412 95.1672C110.707 96.2034 114.582 101 119 101H449C453.418 101 457 97.4183 457 93V11C457 6.58172 453.418 3 449 3H119Z" fill="white"/>
<path fill-rule="evenodd" clip-rule="evenodd" d="M100 9C101.768 9 105 10.4603 105 12.228V92.6611C105 94.0567 103.396 95 102 95C101.514 95 101.041 95.0579 100.588 95.1672C96.2926 96.2034 92.4183 101 88 101H13C8.58172 101 5 97.4183 5 93V11C5 6.58172 8.58172 3 13 3H86C90.4183 3 94.2926 7.79656 98.5877 8.83283C99.0406 8.94211 99.5135 9 100 9Z" fill="white"/>
</g>
</g>
</g>
<defs>
<filter id="filter0_dd_3695_28975" x="0" y="0" width="462" height="108" filterUnits="userSpaceOnUse" colorInterpolationFilters="sRGB">
<feFlood floodOpacity="0" result="BackgroundImageFix"/>
<feColorMatrix in="SourceAlpha" type="matrix" values="0 0 0 0 0 0 0 0 0 0 0 0 0 0 0 0 0 0 127 0" result="hardAlpha"/>
<feMorphology radius="1" operator="erode" in="SourceAlpha" result="effect1_dropShadow_3695_28975"/>
<feOffset dy="2"/>
<feGaussianBlur stdDeviation="3"/>
<feColorMatrix type="matrix" values="0 0 0 0 0 0 0 0 0 0 0 0 0 0 0 0 0 0 0.08 0"/>
<feBlend mode="normal" in2="BackgroundImageFix" result="effect1_dropShadow_3695_28975"/>
<feColorMatrix in="SourceAlpha" type="matrix" values="0 0 0 0 0 0 0 0 0 0 0 0 0 0 0 0 0 0 127 0" result="hardAlpha"/>
<feMorphology radius="1" operator="erode" in="SourceAlpha" result="effect2_dropShadow_3695_28975"/>
<feOffset dy="1"/>
<feGaussianBlur stdDeviation="2"/>
<feColorMatrix type="matrix" values="0 0 0 0 0 0 0 0 0 0 0 0 0 0 0 0 0 0 0.04 0"/>
<feBlend mode="normal" in2="effect1_dropShadow_3695_28975" result="effect2_dropShadow_3695_28975"/>
<feBlend mode="normal" in="SourceGraphic" in2="effect2_dropShadow_3695_28975" result="shape"/>
</filter>
<clipPath id="clip0_3695_28975">
<rect x="5" y="3" width="452" height="98" rx="10" fill="white"/>
</clipPath>
</defs>
</svg>
